# xmcd CD database file
# Copyright (C) 1997 Ti Kan
# 
# Track frame offsets:
#     182
#     10455
#     20582
#     30590
#     41185
#     52477
#     62632
#     73832
#     85367
#     98190
#     109065
#     118457
#     129642
#     139457
# 
# Disc length: 2006 seconds
# 
# Revision: 1
# Processed by: cddbd v1.4b41PL1 Copyright (c) Steve Scherf et al.
# Submitted via: DiscPlay 4.0.4
# 
DISCID=dd07d40e
DTITLE=Louvin Brothers - radio favorites '51-'57
DYEAR=1900
DGENRE=
TTITLE0=the gospel way
TTITLE1=they've got the church outnumbered
TTITLE2=god bless her (cause she is my mother)
TTITLE3=if we forget god
TTITLE4=just rehearsing
TTITLE5=that's all he's asking of me
TTITLE6=love thy neighbor as thyself
TTITLE7=you'll forget
TTITLE8=childish love
TTITLE9=when i stop dreaming
TTITLE10=i don't believe you've met my baby
TTITLE11=hoping that you're hoping
TTITLE12=you're running wild
TTITLE13=i wish you knew
EXTD=
EXTT0=
EXTT1=
EXTT2=
EXTT3=
EXTT4=
EXTT5=
EXTT6=
EXTT7=
EXTT8=
EXTT9=
EXTT10=
EXTT11=
EXTT12=
EXTT13=
PLAYORDER=
